<svg width="22" height="24" viewBox="0 0 22 24" fill="none" xmlns="http://www.w3.org/2000/svg">
<path d="M11.5254 7.76953L10.8652 5.28125L8.37695 4.62109C8.17383 4.51953 8.02148 4.31641 8.02148 4.0625C8.02148 3.85938 8.17383 3.65625 8.37695 3.55469L10.8652 2.84375L11.5254 0.40625C11.627 0.203125 11.8301 0 12.084 0C12.2871 0 12.4902 0.203125 12.5918 0.40625L13.3027 2.84375L15.7402 3.55469C15.9434 3.65625 16.1465 3.85938 16.1465 4.0625C16.1465 4.31641 15.9434 4.51953 15.7402 4.62109L13.3027 5.28125L12.5918 7.76953C12.4902 7.97266 12.2871 8.125 12.084 8.125C11.8301 8.125 11.627 7.97266 11.5254 7.76953ZM16.7559 12.3906L14.8262 11.832C14.623 11.7812 14.5215 11.5781 14.5215 11.375C14.5215 11.2227 14.623 11.0195 14.8262 10.9688L16.7559 10.4102L17.3145 8.48047C17.3652 8.27734 17.5684 8.125 17.7715 8.125C17.9238 8.125 18.127 8.27734 18.1777 8.48047L18.7363 10.4102L20.666 10.9688C20.8691 11.0195 21.0215 11.2227 21.0215 11.375C21.0215 11.5781 20.8691 11.7812 20.666 11.832L18.7363 12.3906L18.1777 14.3203C18.127 14.5234 17.9238 14.625 17.7715 14.625C17.5684 14.625 17.3652 14.5234 17.3145 14.3203L16.7559 12.3906Z" fill="white"/>
<path d="M5.5 18.5L0.75 17.125C0.25 17 0 16.5 0 16C0 15.625 0.25 15.125 0.75 15L5.5 13.625L6.875 8.875C7 8.375 7.5 8 8 8C8.375 8 8.875 8.375 9 8.875L10.375 13.625L15.125 15C15.625 15.125 16 15.625 16 16C16 16.5 15.625 17 15.125 17.125L10.375 18.5L9 23.25C8.875 23.75 8.375 24 8 24C7.5 24 7 23.75 6.875 23.25L5.5 18.5Z" fill="white"/>
</svg>
