<svg width="24" height="24" viewBox="0 0 24 24" fill="none" xmlns="http://www.w3.org/2000/svg">
<path d="M16 7.86681V12.7835C16 13.5659 16.3161 14.3162 16.8787 14.8694C17.4413 15.4227 18.2044 15.7335 19 15.7335C19.7957 15.7335 20.5587 15.4227 21.1213 14.8694C21.6839 14.3162 22 13.5659 22 12.7835V11.8001C22 9.58499 21.2394 7.43473 19.8414 5.69774C18.4434 3.96075 16.49 2.73879 14.2975 2.22986C12.1051 1.72092 9.80215 1.95482 7.76178 2.89365C5.72141 3.83248 4.06318 5.42125 3.05574 7.40254C2.0483 9.38383 1.75069 11.6416 2.21111 13.81C2.67154 15.9783 3.86303 17.9303 5.59254 19.3497C7.32205 20.769 9.48825 21.5726 11.7402 21.6302C13.9921 21.6877 16.1979 20.9959 18 19.6668M16 11.8001C16 13.9725 14.2092 15.7335 12 15.7335C9.79087 15.7335 8.00001 13.9725 8.00001 11.8001C8.00001 9.62782 9.79087 7.86681 12 7.86681C14.2092 7.86681 16 9.62782 16 11.8001Z" stroke="white" stroke-width="2" stroke-linecap="round" stroke-linejoin="round"/>
</svg>
