<svg width="48" height="52" viewBox="0 0 48 52" fill="none" xmlns="http://www.w3.org/2000/svg">
<path d="M2.50061 30.4014L6.4097 21.4369C6.4097 21.4369 7.97334 18.1073 9.01576 20.1563C10.0582 22.2053 10.3188 23.9982 11.6218 26.5595C12.0233 27.3487 13.1855 29.3769 14.2279 25.2789C15.2703 21.1808 17.2683 10.7649 18.137 6.06925C19.0846 0.946694 19.44 -0.333954 20.743 13.7531C21.8113 25.3021 24.2786 58.7632 27.2582 47.0497C28.3006 42.9517 29.8642 31.2552 31.1673 25.2788C31.6016 21.8638 32.9915 16.8266 35.0764 23.9982C36.0598 27.381 36.3794 29.1208 37.6824 29.1208H45.5006" stroke="#068D86" stroke-width="5" stroke-linecap="round"/>
</svg>
